<?xml version="1.0" encoding="utf-8"?>
<!-- Svg Vector Icons : http://www.onlinewebfonts.com/icon -->
<!DOCTYPE svg PUBLIC "-//W3C//DTD SVG 1.1//EN" "http://www.w3.org/Graphics/SVG/1.1/DTD/svg11.dtd">
<svg version="1.1" xmlns="http://www.w3.org/2000/svg" xmlns:xlink="http://www.w3.org/1999/xlink" x="0px" y="0px" viewBox="0 0 1000 1000" enable-background="new 0 0 1000 1000" xml:space="preserve">
<metadata> Svg Vector Icons : http://www.onlinewebfonts.com/icon </metadata>
<g><g transform="translate(0.000000,511.000000) scale(0.100000,-0.100000)"><path d="M5955.9,4595.9c-70.9-26.8-120.7-107.2-239.4-386.9c-70.9-164.7-136-306.4-145.6-316c-9.6-9.6-160.9,47.9-367.7,137.9c-402.2,178.1-461.6,189.6-551.6,101.5c-40.2-42.1-55.5-74.7-55.5-126.4c0-141.7,24.9-162.8,415.6-335.2c197.3-88.1,367.7-166.6,375.4-172.4c9.6-7.7-34.5-132.1-93.8-275.8l-111.1-260.5h-203c-1279.4,0-2344.2-1013.1-2424.7-2304c-17.2-270-65.1-339-229.8-339c-49.8,0-84.3,15.3-126.4,59.4l-59.4,57.5l11.5,252.8c28.7,626.3,272,1220,704.8,1719.9c51.7,59.4,93.8,114.9,93.8,122.6c0,24.9-576.5-3.8-737.4-38.3C1677.3,2381.9,1256,2154,871,1767.1c-383-385-611-808.2-718.2-1334.9c-145.6-714.4,13.4-1476.6,430.9-2057c61.3-84.3,149.4-195.4,195.4-247.1c46-51.7,118.7-153.2,160.9-224.1l74.7-130.2l120.7,74.7c758.4,459.6,1991.8,854.2,3096.9,988.3c386.9,47.9,1151,47.9,1532.2,1.9c1108.9-137.9,2338.5-530.5,3096.9-990.2l118.7-72.8l90,145.5c47.9,80.4,120.7,181.9,160.9,224.1c118.8,124.5,285.4,369.6,383,565c530.5,1061,310.3,2304-555.4,3127.6c-471.1,452-1116.6,702.9-1806,702.9h-227.9l105.3-118.8c440.5-503.7,687.6-1101.3,716.3-1733.3l11.5-252.8l-59.4-57.5c-67-67-159-78.5-250.9-30.6c-70.8,36.4-91.9,99.6-105.3,316C7400,1416.6,6994,2123.3,6356.2,2556.2c-132.2,88.1-407.9,222.2-586.1,285.4c-88.1,28.7-159,63.2-159,72.8c1.9,11.5,38.3,105.3,84.3,210.7c55.5,124.5,93.8,189.6,109.2,185.8c15.3-3.8,174.3-72.8,352.4-151.3c444.3-199.2,459.6-203,540.1-176.2c72.8,23,139.8,113,139.8,189.6c0,118.8-47.9,153.2-476.9,342.8c-222.2,99.6-404.1,187.7-404.1,197.3s61.3,159,134.1,331.3c74.7,172.4,134.1,331.3,134.1,354.3C6224.1,4526.9,6072.8,4638,5955.9,4595.9z"/><path d="M4582.7-1538.6c-886.7-65.1-1888.4-317.9-2692.8-681.8c-231.7-103.4-545.8-270.1-620.5-329.4l-40.2-32.6l252.8-427.1c139.8-233.7,264.3-459.7,277.7-499.9c30.6-105.3,172.4-254.7,333.2-354.3c1070.6-658.8,4376.3-702.9,5663.3-76.6c262.4,128.3,438.6,285.4,480.7,430.9c19.2,63.2,296.9,547.8,524.8,915.5c15.3,26.8-174.3,139.8-478.8,289.2C7170.2-1758.8,5708.9-1456.2,4582.7-1538.6z M5795.1-2783.5c741.2-59.4,1407.7-195.4,1781.1-363.9c136-61.3,180-114.9,180-216.4c0-93.9-44.1-159-128.3-187.7c-59.4-19.2-84.3-13.4-262.4,57.5c-457.7,182-1110.8,291.1-1945.9,327.5c-1080.2,46-2173.8-82.4-2788.6-327.5c-178.1-70.9-203-76.6-262.4-57.5c-84.3,28.7-128.3,93.8-128.3,187.7c0,103.4,44,155.1,183.9,218.3c356.2,162.8,1038,302.6,1740.9,360.1C4446.8-2762.4,5509.7-2760.5,5795.1-2783.5z"/></g></g>
</svg>